<!DOCTYPE svg PUBLIC "-//W3C//DTD SVG 1.1//EN" "http://www.w3.org/Graphics/SVG/1.1/DTD/svg11.dtd">
<!-- Uploaded to: SVG Repo, www.svgrepo.com, Transformed by: SVG Repo Mixer Tools -->
<svg fill="#000000" version="1.1" id="Layer_1" xmlns="http://www.w3.org/2000/svg" xmlns:xlink="http://www.w3.org/1999/xlink" viewBox="0 0 492.308 492.308" xml:space="preserve" width="800px" height="800px">
<g id="SVGRepo_bgCarrier" stroke-width="0"/>
<g id="SVGRepo_tracerCarrier" stroke-linecap="round" stroke-linejoin="round"/>
<g id="SVGRepo_iconCarrier"> <g> <g> <path d="M246.154,36.687C110.423,36.687,0,118.072,0,218.111c0,53.5,31.25,103.423,86.039,137.942L58.034,455.62l130.841-61 c18.663,3.269,37.918,4.923,57.279,4.923c135.731,0,246.154-81.394,246.154-181.433S381.885,36.687,246.154,36.687z M246.154,379.851c-19.24,0-38.361-1.731-56.817-5.154l-3.096-0.577l-97.63,45.519l20.462-72.76l-6.543-3.846 c-52.644-30.962-82.837-76.49-82.837-124.923c0-89.183,101.591-161.731,226.462-161.731s226.462,72.548,226.462,161.731 S371.024,379.851,246.154,379.851z"/> </g> </g> <g> <g> <rect x="73.029" y="205.735" width="346.289" height="19.692"/> </g> </g> <g> <g> <rect x="117.74" y="274.658" width="256.788" height="19.692"/> </g> </g> <g> <g> <rect x="117.74" y="136.812" width="256.788" height="19.692"/> </g> </g> </g>
</svg>