<svg width="99" height="29" viewBox="0 0 99 29" fill="none" xmlns="http://www.w3.org/2000/svg">
<rect width="99" height="29" rx="8" fill="#D9D9D9"/>
<path d="M19 21.75C20.335 21.75 21.6401 21.3541 22.7501 20.6124C23.8601 19.8707 24.7253 18.8165 25.2362 17.5831C25.7471 16.3497 25.8808 14.9925 25.6203 13.6831C25.3599 12.3738 24.717 11.171 23.773 10.227C22.829 9.28303 21.6262 8.64015 20.3169 8.3797C19.0075 8.11925 17.6503 8.25292 16.4169 8.76382C15.1835 9.27471 14.1293 10.1399 13.3876 11.2499C12.6459 12.3599 12.25 13.665 12.25 15C12.25 16.116 12.52 17.1675 13 18.0953L12.25 21.75L15.9048 21C16.8318 21.4793 17.8848 21.75 19 21.75Z" stroke="#5C5C5C" stroke-linecap="round" stroke-linejoin="round"/>
<path d="M33.9062 16.2227H35.3711C35.3242 16.7812 35.168 17.2793 34.9023 17.7168C34.6367 18.1504 34.2637 18.4922 33.7832 18.7422C33.3027 18.9922 32.7188 19.1172 32.0312 19.1172C31.5039 19.1172 31.0293 19.0234 30.6074 18.8359C30.1855 18.6445 29.8242 18.375 29.5234 18.0273C29.2227 17.6758 28.9922 17.252 28.832 16.7559C28.6758 16.2598 28.5977 15.7051 28.5977 15.0918V14.3828C28.5977 13.7695 28.6777 13.2148 28.8379 12.7188C29.002 12.2227 29.2363 11.7988 29.541 11.4473C29.8457 11.0918 30.2109 10.8203 30.6367 10.6328C31.0664 10.4453 31.5488 10.3516 32.084 10.3516C32.7637 10.3516 33.3379 10.4766 33.8066 10.7266C34.2754 10.9766 34.6387 11.3223 34.8965 11.7637C35.1582 12.2051 35.3184 12.7109 35.377 13.2812H33.9121C33.873 12.9141 33.7871 12.5996 33.6543 12.3379C33.5254 12.0762 33.334 11.877 33.0801 11.7402C32.8262 11.5996 32.4941 11.5293 32.084 11.5293C31.748 11.5293 31.4551 11.5918 31.2051 11.7168C30.9551 11.8418 30.7461 12.0254 30.5781 12.2676C30.4102 12.5098 30.2832 12.8086 30.1973 13.1641C30.1152 13.5156 30.0742 13.918 30.0742 14.3711V15.0918C30.0742 15.5215 30.1113 15.9121 30.1855 16.2637C30.2637 16.6113 30.3809 16.9102 30.5371 17.1602C30.6973 17.4102 30.9004 17.6035 31.1465 17.7402C31.3926 17.877 31.6875 17.9453 32.0312 17.9453C32.4492 17.9453 32.7871 17.8789 33.0449 17.7461C33.3066 17.6133 33.5039 17.4199 33.6367 17.166C33.7734 16.9082 33.8633 16.5938 33.9062 16.2227ZM36.2969 15.9004V15.7656C36.2969 15.3086 36.3633 14.8848 36.4961 14.4941C36.6289 14.0996 36.8203 13.7578 37.0703 13.4688C37.3242 13.1758 37.6328 12.9492 37.9961 12.7891C38.3633 12.625 38.7773 12.543 39.2383 12.543C39.7031 12.543 40.1172 12.625 40.4805 12.7891C40.8477 12.9492 41.1582 13.1758 41.4121 13.4688C41.666 13.7578 41.8594 14.0996 41.9922 14.4941C42.125 14.8848 42.1914 15.3086 42.1914 15.7656V15.9004C42.1914 16.3574 42.125 16.7812 41.9922 17.1719C41.8594 17.5625 41.666 17.9043 41.4121 18.1973C41.1582 18.4863 40.8496 18.7129 40.4863 18.877C40.123 19.0371 39.7109 19.1172 39.25 19.1172C38.7852 19.1172 38.3691 19.0371 38.002 18.877C37.6387 18.7129 37.3301 18.4863 37.0762 18.1973C36.8223 17.9043 36.6289 17.5625 36.4961 17.1719C36.3633 16.7812 36.2969 16.3574 36.2969 15.9004ZM37.709 15.7656V15.9004C37.709 16.1855 37.7383 16.4551 37.7969 16.709C37.8555 16.9629 37.9473 17.1855 38.0723 17.377C38.1973 17.5684 38.3574 17.7188 38.5527 17.8281C38.748 17.9375 38.9805 17.9922 39.25 17.9922C39.5117 17.9922 39.7383 17.9375 39.9297 17.8281C40.125 17.7188 40.2852 17.5684 40.4102 17.377C40.5352 17.1855 40.627 16.9629 40.6855 16.709C40.748 16.4551 40.7793 16.1855 40.7793 15.9004V15.7656C40.7793 15.4844 40.748 15.2188 40.6855 14.9688C40.627 14.7148 40.5332 14.4902 40.4043 14.2949C40.2793 14.0996 40.1191 13.9473 39.9238 13.8379C39.7324 13.7246 39.5039 13.668 39.2383 13.668C38.9727 13.668 38.7422 13.7246 38.5469 13.8379C38.3555 13.9473 38.1973 14.0996 38.0723 14.2949C37.9473 14.4902 37.8555 14.7148 37.7969 14.9688C37.7383 15.2188 37.709 15.4844 37.709 15.7656ZM44.7871 13.9492V19H43.375V12.6602H44.7051L44.7871 13.9492ZM44.5586 15.5957L44.0781 15.5898C44.0781 15.1523 44.1328 14.748 44.2422 14.377C44.3516 14.0059 44.5117 13.6836 44.7227 13.4102C44.9336 13.1328 45.1953 12.9199 45.5078 12.7715C45.8242 12.6191 46.1895 12.543 46.6035 12.543C46.8926 12.543 47.1562 12.5859 47.3945 12.6719C47.6367 12.7539 47.8457 12.8848 48.0215 13.0645C48.2012 13.2441 48.3379 13.4746 48.4316 13.7559C48.5293 14.0371 48.5781 14.377 48.5781 14.7754V19H47.166V14.8984C47.166 14.5898 47.1191 14.3477 47.0254 14.1719C46.9355 13.9961 46.8047 13.8711 46.6328 13.7969C46.4648 13.7188 46.2637 13.6797 46.0293 13.6797C45.7637 13.6797 45.5371 13.7305 45.3496 13.832C45.166 13.9336 45.0156 14.0723 44.8984 14.248C44.7812 14.4238 44.6953 14.627 44.6406 14.8574C44.5859 15.0879 44.5586 15.334 44.5586 15.5957ZM48.4902 15.2207L47.8281 15.3672C47.8281 14.9844 47.8809 14.623 47.9863 14.2832C48.0957 13.9395 48.2539 13.6387 48.4609 13.3809C48.6719 13.1191 48.9316 12.9141 49.2402 12.7656C49.5488 12.6172 49.9023 12.543 50.3008 12.543C50.625 12.543 50.9141 12.5879 51.168 12.6777C51.4258 12.7637 51.6445 12.9004 51.8242 13.0879C52.0039 13.2754 52.1406 13.5195 52.2344 13.8203C52.3281 14.1172 52.375 14.4766 52.375 14.8984V19H50.957V14.8926C50.957 14.5723 50.9102 14.3242 50.8164 14.1484C50.7266 13.9727 50.5977 13.8516 50.4297 13.7852C50.2617 13.7148 50.0605 13.6797 49.8262 13.6797C49.6074 13.6797 49.4141 13.7207 49.2461 13.8027C49.082 13.8809 48.9434 13.9922 48.8301 14.1367C48.7168 14.2773 48.6309 14.4395 48.5723 14.623C48.5176 14.8066 48.4902 15.0059 48.4902 15.2207ZM55.2402 13.9492V19H53.8281V12.6602H55.1582L55.2402 13.9492ZM55.0117 15.5957L54.5312 15.5898C54.5312 15.1523 54.5859 14.748 54.6953 14.377C54.8047 14.0059 54.9648 13.6836 55.1758 13.4102C55.3867 13.1328 55.6484 12.9199 55.9609 12.7715C56.2773 12.6191 56.6426 12.543 57.0566 12.543C57.3457 12.543 57.6094 12.5859 57.8477 12.6719C58.0898 12.7539 58.2988 12.8848 58.4746 13.0645C58.6543 13.2441 58.791 13.4746 58.8848 13.7559C58.9824 14.0371 59.0312 14.377 59.0312 14.7754V19H57.6191V14.8984C57.6191 14.5898 57.5723 14.3477 57.4785 14.1719C57.3887 13.9961 57.2578 13.8711 57.0859 13.7969C56.918 13.7188 56.7168 13.6797 56.4824 13.6797C56.2168 13.6797 55.9902 13.7305 55.8027 13.832C55.6191 13.9336 55.4688 14.0723 55.3516 14.248C55.2344 14.4238 55.1484 14.627 55.0938 14.8574C55.0391 15.0879 55.0117 15.334 55.0117 15.5957ZM58.9434 15.2207L58.2812 15.3672C58.2812 14.9844 58.334 14.623 58.4395 14.2832C58.5488 13.9395 58.707 13.6387 58.9141 13.3809C59.125 13.1191 59.3848 12.9141 59.6934 12.7656C60.002 12.6172 60.3555 12.543 60.7539 12.543C61.0781 12.543 61.3672 12.5879 61.6211 12.6777C61.8789 12.7637 62.0977 12.9004 62.2773 13.0879C62.457 13.2754 62.5938 13.5195 62.6875 13.8203C62.7812 14.1172 62.8281 14.4766 62.8281 14.8984V19H61.4102V14.8926C61.4102 14.5723 61.3633 14.3242 61.2695 14.1484C61.1797 13.9727 61.0508 13.8516 60.8828 13.7852C60.7148 13.7148 60.5137 13.6797 60.2793 13.6797C60.0605 13.6797 59.8672 13.7207 59.6992 13.8027C59.5352 13.8809 59.3965 13.9922 59.2832 14.1367C59.1699 14.2773 59.084 14.4395 59.0254 14.623C58.9707 14.8066 58.9434 15.0059 58.9434 15.2207ZM67.0762 19.1172C66.6074 19.1172 66.1836 19.041 65.8047 18.8887C65.4297 18.7324 65.1094 18.5156 64.8438 18.2383C64.582 17.9609 64.3809 17.6348 64.2402 17.2598C64.0996 16.8848 64.0293 16.4805 64.0293 16.0469V15.8125C64.0293 15.3164 64.1016 14.8672 64.2461 14.4648C64.3906 14.0625 64.5918 13.7188 64.8496 13.4336C65.1074 13.1445 65.4121 12.9238 65.7637 12.7715C66.1152 12.6191 66.4961 12.543 66.9062 12.543C67.3594 12.543 67.7559 12.6191 68.0957 12.7715C68.4355 12.9238 68.7168 13.1387 68.9395 13.416C69.166 13.6895 69.334 14.0156 69.4434 14.3945C69.5566 14.7734 69.6133 15.1914 69.6133 15.6484V16.252H64.7148V15.2383H68.2188V15.127C68.2109 14.873 68.1602 14.6348 68.0664 14.4121C67.9766 14.1895 67.8379 14.0098 67.6504 13.873C67.4629 13.7363 67.2129 13.668 66.9004 13.668C66.666 13.668 66.457 13.7188 66.2734 13.8203C66.0938 13.918 65.9434 14.0605 65.8223 14.248C65.7012 14.4355 65.6074 14.6621 65.541 14.9277C65.4785 15.1895 65.4473 15.4844 65.4473 15.8125V16.0469C65.4473 16.3242 65.4844 16.582 65.5586 16.8203C65.6367 17.0547 65.75 17.2598 65.8984 17.4355C66.0469 17.6113 66.2266 17.75 66.4375 17.8516C66.6484 17.9492 66.8887 17.998 67.1582 17.998C67.498 17.998 67.8008 17.9297 68.0664 17.793C68.332 17.6562 68.5625 17.4629 68.7578 17.2129L69.502 17.9336C69.3652 18.1328 69.1875 18.3242 68.9688 18.5078C68.75 18.6875 68.4824 18.834 68.166 18.9473C67.8535 19.0605 67.4902 19.1172 67.0762 19.1172ZM72.1152 14.0137V19H70.7031V12.6602H72.0332L72.1152 14.0137ZM71.8633 15.5957L71.4062 15.5898C71.4102 15.1406 71.4727 14.7285 71.5938 14.3535C71.7188 13.9785 71.8906 13.6562 72.1094 13.3867C72.332 13.1172 72.5977 12.9102 72.9062 12.7656C73.2148 12.6172 73.5586 12.543 73.9375 12.543C74.2422 12.543 74.5176 12.5859 74.7637 12.6719C75.0137 12.7539 75.2266 12.8887 75.4023 13.0762C75.582 13.2637 75.7188 13.5078 75.8125 13.8086C75.9062 14.1055 75.9531 14.4707 75.9531 14.9043V19H74.5352V14.8984C74.5352 14.5938 74.4902 14.3535 74.4004 14.1777C74.3145 13.998 74.1875 13.8711 74.0195 13.7969C73.8555 13.7188 73.6504 13.6797 73.4043 13.6797C73.1621 13.6797 72.9453 13.7305 72.7539 13.832C72.5625 13.9336 72.4004 14.0723 72.2676 14.248C72.1387 14.4238 72.0391 14.627 71.9688 14.8574C71.8984 15.0879 71.8633 15.334 71.8633 15.5957ZM80.3008 12.6602V13.6914H76.7266V12.6602H80.3008ZM77.7578 11.1074H79.1699V17.248C79.1699 17.4434 79.1973 17.5938 79.252 17.6992C79.3105 17.8008 79.3906 17.8691 79.4922 17.9043C79.5938 17.9395 79.7129 17.957 79.8496 17.957C79.9473 17.957 80.041 17.9512 80.1309 17.9395C80.2207 17.9277 80.293 17.916 80.3477 17.9043L80.3535 18.9824C80.2363 19.0176 80.0996 19.0488 79.9434 19.0762C79.791 19.1035 79.6152 19.1172 79.416 19.1172C79.0918 19.1172 78.8047 19.0605 78.5547 18.9473C78.3047 18.8301 78.1094 18.6406 77.9688 18.3789C77.8281 18.1172 77.7578 17.7695 77.7578 17.3359V11.1074ZM84.9473 17.2832C84.9473 17.1426 84.9121 17.0156 84.8418 16.9023C84.7715 16.7852 84.6367 16.6797 84.4375 16.5859C84.2422 16.4922 83.9531 16.4062 83.5703 16.3281C83.2344 16.2539 82.9258 16.166 82.6445 16.0645C82.3672 15.959 82.1289 15.832 81.9297 15.6836C81.7305 15.5352 81.5762 15.3594 81.4668 15.1562C81.3574 14.9531 81.3027 14.7188 81.3027 14.4531C81.3027 14.1953 81.3594 13.9512 81.4727 13.7207C81.5859 13.4902 81.748 13.2871 81.959 13.1113C82.1699 12.9355 82.4258 12.7969 82.7266 12.6953C83.0312 12.5938 83.3711 12.543 83.7461 12.543C84.2773 12.543 84.7324 12.6328 85.1113 12.8125C85.4941 12.9883 85.7871 13.2285 85.9902 13.5332C86.1934 13.834 86.2949 14.1738 86.2949 14.5527H84.8828C84.8828 14.3848 84.8398 14.2285 84.7539 14.084C84.6719 13.9355 84.5469 13.8164 84.3789 13.7266C84.2109 13.6328 84 13.5859 83.7461 13.5859C83.5039 13.5859 83.3027 13.625 83.1426 13.7031C82.9863 13.7773 82.8691 13.875 82.791 13.9961C82.7168 14.1172 82.6797 14.25 82.6797 14.3945C82.6797 14.5 82.6992 14.5957 82.7383 14.6816C82.7812 14.7637 82.8516 14.8398 82.9492 14.9102C83.0469 14.9766 83.1797 15.0391 83.3477 15.0977C83.5195 15.1562 83.7344 15.2129 83.9922 15.2676C84.4766 15.3691 84.8926 15.5 85.2402 15.6602C85.5918 15.8164 85.8613 16.0195 86.0488 16.2695C86.2363 16.5156 86.3301 16.8281 86.3301 17.207C86.3301 17.4883 86.2695 17.7461 86.1484 17.9805C86.0312 18.2109 85.8594 18.4121 85.6328 18.584C85.4062 18.752 85.1348 18.8828 84.8184 18.9766C84.5059 19.0703 84.1543 19.1172 83.7637 19.1172C83.1895 19.1172 82.7031 19.0156 82.3047 18.8125C81.9062 18.6055 81.6035 18.3418 81.3965 18.0215C81.1934 17.6973 81.0918 17.3613 81.0918 17.0137H82.457C82.4727 17.2754 82.5449 17.4844 82.6738 17.6406C82.8066 17.793 82.9707 17.9043 83.166 17.9746C83.3652 18.041 83.5703 18.0742 83.7812 18.0742C84.0352 18.0742 84.248 18.041 84.4199 17.9746C84.5918 17.9043 84.7227 17.8105 84.8125 17.6934C84.9023 17.5723 84.9473 17.4355 84.9473 17.2832Z" fill="#5C5C5C"/>
</svg>
